<?xml version="1.0" standalone="no"?>
<!DOCTYPE svg PUBLIC "-//W3C//DTD SVG 20010904//EN"
 "http://www.w3.org/TR/2001/REC-SVG-20010904/DTD/svg10.dtd">
<svg version="1.0" xmlns="http://www.w3.org/2000/svg"
 width="330.000000pt" height="330.000000pt" viewBox="0 0 330.000000 330.000000"
 preserveAspectRatio="xMidYMid meet">
<metadata>
Created by potrace 1.11, written by Peter Selinger 2001-2013
</metadata>
<g transform="translate(0.000000,330.000000) scale(0.100000,-0.100000)"
fill="#000000" stroke="none">
<path d="M285 2248 c-2 -7 -25 -128 -50 -268 -25 -140 -59 -327 -75 -415 -16
-88 -43 -235 -60 -327 -16 -92 -30 -172 -30 -177 0 -17 478 -13 565 4 122 24
158 35 240 75 90 43 193 130 237 199 35 56 35 46 3 -135 -14 -76 -25 -143 -25
-147 0 -4 165 -7 368 -5 l367 3 78 37 c46 22 100 58 132 89 30 29 55 50 55 48
0 -2 -7 -39 -15 -82 -8 -43 -15 -83 -15 -88 0 -16 432 -11 517 7 179 37 329
112 448 226 112 106 172 222 201 388 46 267 -77 460 -351 552 -66 22 -84 23
-335 23 l-265 0 -16 -95 c-15 -86 -17 -92 -27 -68 -18 43 -82 107 -136 136
l-51 27 -368 3 c-296 3 -368 1 -371 -10 -2 -7 -16 -80 -31 -163 -29 -160 -43
-221 -44 -193 -2 43 -46 132 -89 179 -62 69 -147 123 -246 156 -78 26 -91 27
-343 31 -213 3 -264 1 -268 -10z m476 -276 c42 -22 58 -38 78 -76 33 -64 38
-146 16 -239 -32 -133 -87 -207 -190 -253 -43 -19 -155 -43 -155 -32 0 1 25
140 55 308 30 168 55 308 55 313 0 19 91 5 141 -21z m1990 0 c70 -36 100 -88
106 -181 12 -163 -67 -326 -184 -381 -48 -22 -159 -48 -168 -38 -3 2 8 76 24
164 16 87 42 228 57 312 l28 152 42 0 c26 0 62 -10 95 -28z m-926 -6 c42 -18
60 -52 51 -100 -7 -37 -51 -82 -89 -91 -50 -11 -177 -10 -177 1 0 15 29 175
35 192 6 17 137 16 180 -2z m345 -296 c-11 -63 -20 -116 -20 -119 0 -3 -9 8
-19 25 -10 17 -36 48 -57 68 -31 30 -36 39 -24 46 8 5 42 29 75 53 33 24 61
43 63 42 1 -1 -6 -53 -18 -115z m-400 -140 c31 -36 34 -65 13 -106 -28 -55
-72 -74 -170 -74 -46 0 -83 3 -83 8 0 4 7 51 17 105 l17 98 93 -4 c82 -4 95
-7 113 -27z"/>
</g>
</svg>
